# AST/ASF file generated using VICON BodyLanguage
# -----------------------------------------------
:version 1.10
:name VICON
:units
  mass 1.0
  length 0.45
  angle deg
:documentation
   .ast/.asf automatically generated from VICON data using
   VICON BodyBuilder and BodyLanguage model FoxedUp or BRILLIANT.MOD
:root
   order TX TY TZ RX RY RZ
   axis XYZ
   position 0 0 0  
   orientation 0 0 0 
:bonedata
  begin
     id 1 
     name lhipjoint
     direction 0.78388 -0.462562 0.414208 
     length 3.01181 
     axis 0 0 0  XYZ
  end
  begin
     id 2 
     name lfemur
     direction 0.34202 -0.939693 0  
     length 6.04673  
     axis 0 0 20  XYZ
    dof rx ry rz
    limits (-160.0 20.0)
           (-70.0 70.0)
           (-60.0 70.0)
  end
  begin
     id 3 
     name ltibia
     direction 0.34202 -0.939693 0   
     length 7.211   
     axis 0 0 20   XYZ
    dof rx
    limits (-10.0 170.0)
  end
  begin
     id 4 
     name lfoot
     direction 0.121887 -0.334882 0.934344   
     length 2.13567   
     axis -90 7.62852e-016 20   XYZ
    dof rx rz
    limits (-45.0 90.0)
           (-70.0 20.0)
  end
  begin
     id 5 
     name ltoes
     direction 1.53555e-011 -4.2179e-011 1   
     length 1.05957   
     axis -90 7.62852e-016 20   XYZ
    dof rx
    limits (-90.0 20.0)
  end
  begin
     id 6 
     name rhipjoint
     direction -0.769387 -0.475875 0.426129   
     length 2.92756  
     axis 0 0 0  XYZ 
  end
  begin
     id 7 
     name rfemur
     direction -0.34202 -0.939693 0   
     length 6.35468   
     axis 0 0 -20   XYZ
    dof rx ry rz
    limits (-160.0 20.0)
           (-70.0 70.0)
           (-70.0 60.0)
  end
  begin
     id 8 
     name rtibia
     direction -0.34202 -0.939693 0   
     length 7.37886   
     axis 0 0 -20   XYZ
    dof rx
    limits (-10.0 170.0)
 end
 begin
     id 9 
     name rfoot
     direction -0.101763 -0.279592 0.954711   
     length 2.21478  
     axis -90 -7.62852e-016 -20   XYZ
    dof rx rz
    limits (-45.0 90.0)
           (-20.0 70.0)
  end
  begin
     id 10 
     name rtoes
     direction -1.53494e-011 -4.21851e-011 1   
     length 1.10506   
     axis -90 -7.62852e-016 -20   XYZ
    dof rx
    limits (-90.0 20.0)
  end
  begin
     id 11 
     name lowerback
     direction 0.00747405 0.999267 0.0375481   
     length 2.13259   
     axis 0 0 0   XYZ
    dof rx ry rz
    limits (-20.0 45.0)
           (-30.0 30.0)
           (-30.0 30.0)
  end
  begin
     id 12 
     name upperback
     direction 0.00661626 0.996177 0.0871029   
     length 2.10528   
     axis 0 0 0   XYZ
    dof rx ry rz
    limits (-20.0 45.0)
           (-30.0 30.0)
           (-30.0 30.0)
  end
  begin
     id 13 
     name thorax
     direction 0.00320659 0.997679 0.0680167   
     length 2.11338   
     axis 0 0 0   XYZ
    dof rx ry rz
    limits (-20.0 45.0)
           (-30.0 30.0)
           (-30.0 30.0)
  end
  begin
     id 14 
     name lowerneck
     direction 0.0374841 0.973033 0.227602   
     length 1.42765   
     axis 0 0 0   XYZ
    dof rx ry rz
    limits (-20.0 45.0)
           (-30.0 30.0)
           (-30.0 30.0)
  end
  begin
     id 15 
     name upperneck
     direction 0.00481585 0.989155 -0.146795   
     length 1.47593   
     axis 0 0 0   XYZ
    dof rx ry rz
    limits (-20.0 45.0)
           (-30.0 30.0)
           (-30.0 30.0)
  end
  begin
     id 16
     name head
     direction -0.00292522 0.997206 -0.0746423  
     length 1.48116  
     axis 0 0 0   XYZ
    dof rx ry rz
    limits (-20.0 45.0)
           (-30.0 30.0)
           (-30.0 30.0)
  end
  begin
     id 17 
     name lclavicle
     direction 0.951444 0.305606 0.0368784  
     length 3.01855  
     axis 0 0 0   XYZ
    dof ry rz
    limits (-20.0 10.0)
           (0.0 20.0)
  end
  begin
     id 18 
     name lhumerus
     direction 1 -4.48977e-011 2.61664e-027   
     length 5.52731   
     axis 180 -30 -90   XYZ
    dof rx ry rz
    limits (-60.0 90.0)
           (-90.0 90.0)
           (-90.0 90.0)
  end
  begin
     id 19
     name lradius
     direction 1 -4.48944e-011 8.22157e-027   
     length 3.11059   
     axis 180 -30 -90   XYZ
    dof rx
    limits (-10.0 170.0)
  end
  begin
     id 20
     name lwrist
     direction 1 -4.48976e-011 1.5779e-026   
     length 1.5553   
     axis -1.15221e-014 90 90   XYZ
    dof ry
    limits (-180.0 0.0)
 end
  begin
     id 21 
     name lhand
     direction 1 -4.49025e-011 3.1558e-026   
     length 0.419626   
     axis -2.01367e-014 90 90   XYZ
    dof rx rz
    limits (-90.0 90.0)
           (-45.0 45.0)
  end
  begin
     id 22 
     name lfingers
     direction 1 -4.4904e-011 6.31161e-026   
     length 0.338313   
     axis -4.02734e-014 90 90   XYZ
    dof rx
    limits (0.0 90.0)
  end
  begin
     id 23
     name lthumb
     direction 0.707107 -6.35004e-011 0.707107   
     length 0.485752   
     axis -90 45 2.85299e-015   XYZ
    dof rx rz
    limits (-45.0 45.0)
           (-45.0 45.0)
  end
  begin
     id 24 
     name rclavicle
     direction -0.968876 0.223791 0.105816   
     length 3.04177  
     axis 0 0 0   XYZ 
    dof ry rz
    limits (-10.0 20.0)
           (-20.0 0.0)
  end
  begin
     id 25 
     name rhumerus
     direction -1 -4.48962e-011 -1.01384e-027  
     length 5.25396   
     axis 180 30 90   XYZ
    dof rx ry rz
    limits (-90.0 60.0)
           (-90.0 90.0)
           (-90.0 90.0)
  end
  begin
     id 26 
     name rradius
     direction -1 -4.48955e-011 8.88542e-027   
     length 3.10567   
     axis 180 30 90   XYZ
    dof rx
    limits (-10.0 170.0)
  end
  begin
     id 27 
     name rwrist
     direction -1 -4.48994e-011 1.5779e-026   
     length 1.55283   
     axis -1.15221e-014 -90 -90   XYZ
    dof ry
    limits (-180.0 0.0)
  end
  begin
     id 28
     name rhand
     direction -1 -4.48891e-011 3.1558e-026   
     length 0.498676   
     axis -2.01367e-014 -90 -90   XYZ
    dof rx rz
    limits (-90.0 90.0)
           (-45.0 45.0)
  end
  begin
     id 29
     name rfingers
     direction -1 -4.48972e-011 6.31161e-026   
     length 0.402045   
     axis -4.02734e-014 -90 -90   XYZ
    dof rx
    limits (0.0 90.0)
  end
  begin
     id 30
     name rthumb
     direction -0.707107 -6.34849e-011 0.707107   
     length 0.577259   
     axis -90 -45 -2.85299e-015   XYZ
    dof rx rz
    limits (-45.0 45.0)
           (-45.0 45.0)
  end
:hierarchy
  begin
    root lhipjoint rhipjoint lowerback
    lhipjoint lfemur
    lfemur ltibia
    ltibia lfoot
    lfoot ltoes
    rhipjoint rfemur
    rfemur rtibia
    rtibia rfoot
    rfoot rtoes
    lowerback upperback
    upperback thorax
    thorax lowerneck lclavicle rclavicle
    lowerneck upperneck
    upperneck head
    lclavicle lhumerus
    lhumerus lradius
    lradius lwrist
    lwrist lhand lthumb
    lhand lfingers
    rclavicle rhumerus
    rhumerus rradius
    rradius rwrist
    rwrist rhand rthumb
    rhand rfingers
  end

#!OML:ASF H:\Pregnant\Project 1\Capture day 1\Session 1\femalepreg.ASF
:FULLY-SPECIFIED
:DEGREES
179
root 5.65117 15.5993 28.554 138.31 -88.4109 -123.386
lowerback -22.3236 -0.130768 -0.317736
upperback -5.07396 -0.543097 0.959168
thorax 6.91435 -0.428032 1.05281
lowerneck -19.5428 2.36587 3.18381
upperneck 25.6931 0.90265 3.68333
head 11.6662 1.08424 0.94626
rclavicle 1.13059e-015 1.68967e-015
rhumerus -37.1361 16.8103 -92.4879
rradius 26.9998
rwrist -7.03862
rhand -16.0081 -19.911
rfingers 7.12502
rthumb 10.1923 -49.6441
lclavicle 1.13059e-015 1.68967e-015
lhumerus -40.0568 -12.5217 92.0692
lradius 30.1501
lwrist 38.0382
lhand -27.0208 -0.147579
lfingers 7.12502
lthumb -0.440164 29.8317
rfemur -29.162 22.4516 19.2622
rtibia 32.6298
rfoot -15.1632 -16.5094
rtoes 1.04739
lfemur -15.8319 -14.5611 -19.6587
ltibia 6.98558
lfoot -3.65117 10.4488
ltoes -5.91686
180
root 5.65112 15.5991 28.5528 138.489 -88.41 -123.569
lowerback -22.3113 -0.1386 -0.324817
upperback -5.06977 -0.550859 0.954997
thorax 6.91274 -0.431668 1.05024
lowerneck -19.5373 2.36351 3.18261
upperneck 25.6815 0.896734 3.6958
head 11.6607 1.08285 0.949893
rclavicle 2.01891e-015 -1.21259e-014
rhumerus -37.1291 16.798 -92.4907
rradius 27.0007
rwrist -7.05926
rhand -16.0064 -19.9129
rfingers 7.12502
rthumb 10.194 -49.6459
lclavicle 2.01891e-015 -1.21259e-014
lhumerus -40.0555 -12.5402 92.0697
lradius 30.1493
lwrist 38.0165
lhand -27.0321 -0.140835
lfingers 7.12502
lthumb -0.451105 29.8384
rfemur -29.1575 22.4458 19.2693
rtibia 32.6331
rfoot -15.1681 -16.5013
rtoes 1.05432
lfemur -15.8324 -14.5569 -19.6627
ltibia 7.00431
lfoot -3.65685 10.4523
ltoes -5.94962
181
root 5.6511 15.5988 28.5516 138.69 -88.4105 -123.776
lowerback -22.3002 -0.146886 -0.332776
upperback -5.06523 -0.559015 0.950866
thorax 6.9121 -0.435509 1.0481
lowerneck -19.5326 2.36239 3.18159
upperneck 25.6701 0.892635 3.70785
head 11.6554 1.08228 0.95364
rclavicle 1.83876e-015 2.48481e-015
rhumerus -37.1235 16.7918 -92.4968
rradius 27.0029
rwrist -7.09153
rhand -16.0137 -19.92
rfingers 7.12502
rthumb 10.1869 -49.6534
lclavicle 1.83876e-015 2.48481e-015
lhumerus -40.0515 -12.5568 92.0695
lradius 30.1465
lwrist 37.9952
lhand -27.0491 -0.132031
lfingers 7.12502
lthumb -0.467513 29.8472
rfemur -29.1542 22.4362 19.2748
rtibia 32.6367
rfoot -15.169 -16.4927
rtoes 1.03972
lfemur -15.8338 -14.5535 -19.6682
ltibia 7.02277
lfoot -3.66479 10.4568
ltoes -5.96291
182
root 5.65112 15.5986 28.5506 138.95 -88.4123 -124.04
lowerback -22.2888 -0.153333 -0.339275
upperback -5.05971 -0.564859 0.944693
thorax 6.91233 -0.43817 1.04355
lowerneck -19.5308 2.36126 3.18038
upperneck 25.6596 0.888094 3.721
head 11.6511 1.08168 0.95782
rclavicle 1.78906e-015 9.0447e-015
rhumerus -37.1152 16.7769 -92.5012
rradius 27.0026
rwrist -7.12142
rhand -16.027 -19.9318
rfingers 7.12502
rthumb 10.1741 -49.6658
lclavicle 1.78906e-015 9.0447e-015
lhumerus -40.045 -12.5788 92.0701
lradius 30.1428
lwrist 37.9746
lhand -27.0581 -0.114127
lfingers 7.12502
lthumb -0.476156 29.8651
rfemur -29.1508 22.4256 19.2776
rtibia 32.6409
rfoot -15.1702 -16.4845
rtoes 1.0227
lfemur -15.8336 -14.5499 -19.6759
ltibia 7.03877
lfoot -3.67116 10.4611
ltoes -5.97458
183
root 5.65117 15.5985 28.5496 139.174 -88.4135 -124.27
lowerback -22.277 -0.158298 -0.343634
upperback -5.05426 -0.569253 0.938505
thorax 6.9122 -0.440096 1.03817
lowerneck -19.5293 2.3605 3.18147
upperneck 25.6492 0.88433 3.73088
head 11.6468 1.08124 0.960527
rclavicle 4.11236e-015 -9.19379e-015
rhumerus -37.1066 16.7562 -92.5028
rradius 27.0005
rwrist -7.14794
rhand -16.0416 -19.939
rfingers 7.12502
rthumb 10.16 -49.6736
lclavicle 4.11236e-015 -9.19379e-015
lhumerus -40.0377 -12.6041 92.0723
lradius 30.1394
lwrist 37.956
lhand -27.0641 -0.0918517
lfingers 7.12502
lthumb -0.482044 29.8873
rfemur -29.1475 22.4206 19.2797
rtibia 32.6449
rfoot -15.1725 -16.479
rtoes 1.01813
lfemur -15.8346 -14.5463 -19.6815
ltibia 7.05478
lfoot -3.67992 10.4652
ltoes -5.96149
184
root 5.65122 15.5984 28.5487 139.361 -88.4144 -124.463
lowerback -22.2639 -0.161347 -0.344716
upperback -5.0487 -0.571828 0.931907
thorax 6.91147 -0.441076 1.03097
lowerneck -19.5276 2.35899 3.17874
upperneck 25.6391 0.880504 3.74171
head 11.6426 1.08054 0.964219
rclavicle 1.53437e-015 -1.51573e-014
rhumerus -37.0955 16.7222 -92.4996
rradius 26.9944
rwrist -7.16567
rhand -16.0585 -19.9485
rfingers 7.12502
rthumb 10.1437 -49.684
lclavicle 1.53437e-015 -1.51573e-014
lhumerus -40.0279 -12.6292 92.0746
lradius 30.1331
lwrist 37.9364
lhand -27.0679 -0.0661592
lfingers 7.12502
lthumb -0.4857 29.913
rfemur -29.1423 22.4157 19.2824
rtibia 32.6482
rfoot -15.1754 -16.4732
rtoes 1.0225
lfemur -15.8368 -14.5431 -19.686
ltibia 7.07445
lfoot -3.69384 10.469
ltoes -5.91937
185
root 5.65127 15.5983 28.5478 139.511 -88.4149 -124.62
lowerback -22.2493 -0.163937 -0.343611
upperback -5.04372 -0.574328 0.925461
thorax 6.90929 -0.44199 1.02272
lowerneck -19.5252 2.35919 3.1807
upperneck 25.6305 0.879201 3.74684
head 11.6388 1.0807 0.965424
rclavicle 6.26793e-015 -1.98785e-016
rhumerus -37.0849 16.684 -92.4949
rradius 26.9873
rwrist -7.17516
rhand -16.0698 -19.9521
rfingers 7.12502
rthumb 10.1328 -49.6881
lclavicle 6.26793e-015 -1.98785e-016
lhumerus -40.0188 -12.6529 92.0757
lradius 30.1279
lwrist 37.9153
lhand -27.0598 -0.0405341
lfingers 7.12502
lthumb -0.477811 29.9387
rfemur -29.1357 22.4127 19.2861
rtibia 32.6503
rfoot -15.1767 -16.47
rtoes 1.02343
lfemur -15.8424 -14.5401 -19.6893
ltibia 7.10075
lfoot -3.71159 10.4732
ltoes -5.86386
186
root 5.65128 15.5981 28.5469 139.56 -88.4124 -124.678
lowerback -22.2323 -0.170208 -0.341563
upperback -5.03876 -0.582151 0.922828
thorax 6.906 -0.445476 1.01661
lowerneck -19.5219 2.36502 3.19394
upperneck 25.6241 0.884792 3.74281
head 11.6359 1.0839 0.96244
rclavicle 8.57259e-016 -1.78906e-015
rhumerus -37.0766 16.6599 -92.4975
rradius 26.9819
rwrist -7.18552
rhand -16.0837 -19.9636
rfingers 7.12502
rthumb 10.1194 -49.7003
lclavicle 8.57259e-016 -1.78906e-015
lhumerus -40.0109 -12.6624 92.0715
lradius 30.1242
lwrist 37.8926
lhand -27.0505 -0.0190204
lfingers 7.12502
lthumb -0.4689 29.9602
rfemur -29.1259 22.4146 19.2939
rtibia 32.6512
rfoot -15.1833 -16.4653
rtoes 1.05838
lfemur -15.8497 -14.5364 -19.6882
ltibia 7.13329
lfoot -3.73285 10.4786
ltoes -5.81704
187
root 5.65126 15.5978 28.546 139.56 -88.4092 -124.687
lowerback -22.2137 -0.178969 -0.339995
upperback -5.03464 -0.593348 0.922536
thorax 6.90106 -0.450626 1.01239
lowerneck -19.5167 2.3747 3.21414
upperneck 25.6196 0.895631 3.73167
head 11.6334 1.08921 0.956482
rclavicle 2.42269e-016 2.03754e-015
rhumerus -37.0718 16.6482 -92.5051
rradius 26.9801
rwrist -7.1995
rhand -16.0908 -19.9717
rfingers 7.12502
rthumb 10.1126 -49.7087
lclavicle 2.42269e-016 2.03754e-015
lhumerus -40.0079 -12.6683 92.0677
lradius 30.1256
lwrist 37.8748
lhand -27.0379 -9.51907e-005
lfingers 7.12502
lthumb -0.456734 29.9792
rfemur -29.1146 22.4156 19.3041
rtibia 32.652
rfoot -15.1899 -16.4594
rtoes 1.08998
lfemur -15.8578 -14.5329 -19.6854
ltibia 7.1685
lfoot -3.75158 10.483
ltoes -5.79649
188
root 5.65118 15.5975 28.5449 139.543 -88.405 -124.679
lowerback -22.1961 -0.190405 -0.339872
upperback -5.02993 -0.607902 0.924642
thorax 6.89736 -0.457433 1.01067
lowerneck -19.5139 2.38847 3.23932
upperneck 25.6187 0.911899 3.71527
head 11.6328 1.09685 0.948683
rclavicle 1.90088e-015 5.56597e-015
rhumerus -37.0704 16.6571 -92.5216
rradius 26.9842
rwrist -7.22422
rhand -16.0933 -19.9841
rfingers 7.12502
rthumb 10.1102 -49.7212
lclavicle 1.90088e-015 5.56597e-015
lhumerus -40.005 -12.6621 92.0598
lradius 30.1282
lwrist 37.8544
lhand -27.0196 0.00995664
lfingers 7.12502
lthumb -0.439063 29.9892
rfemur -29.1028 22.4173 19.316
rtibia 32.6526
rfoot -15.1953 -16.4533
rtoes 1.11124
lfemur -15.8664 -14.5287 -19.6809
ltibia 7.2047
lfoot -3.76788 10.4864
ltoes -5.80202
189
root 5.65112 15.5973 28.5439 139.583 -88.4021 -124.728
lowerback -22.1793 -0.20343 -0.341943
upperback -5.02559 -0.624231 0.928536
thorax 6.89377 -0.465163 1.01166
lowerneck -19.5116 2.40389 3.26152
upperneck 25.6189 0.931869 3.69756
head 11.6326 1.10572 0.941498
rclavicle -8.29926e-015 1.31695e-014
rhumerus -37.0722 16.6838 -92.5422
rradius 26.9934
rwrist -7.2632
rhand -16.0935 -19.9945
rfingers 7.12502
rthumb 10.11 -49.7316
lclavicle -8.29926e-015 1.31695e-014
lhumerus -40.0033 -12.6498 92.0528
lradius 30.1329
lwrist 37.837
lhand -27.0071 0.0184648
lfingers 7.12502
lthumb -0.426967 29.9978
rfemur -29.0928 22.4166 19.3258
rtibia 32.6539
rfoot -15.2015 -16.4447
rtoes 1.13353
lfemur -15.875 -14.5248 -19.6789
ltibia 7.23964
lfoot -3.78223 10.4889
ltoes -5.83034
